<?xml version="1.0" encoding="UTF-8" standalone="no"?>
<!DOCTYPE svg PUBLIC "-//W3C//DTD SVG 1.0//EN" "http://www.w3.org/TR/2001/PR-SVG-20010719/DTD/svg10.dtd">
<svg width="18cm" height="11cm" viewBox="242 202 354 208" xmlns="http://www.w3.org/2000/svg" xmlns:xlink="http://www.w3.org/1999/xlink">
  <g>
    <rect style="fill: none; fill-opacity:0; stroke-width: 2.35099e-37; stroke-dasharray: 40; stroke: #ffffff" x="242.222" y="202.262" width="353.324" height="207.741"/>
    <text font-size="12.7998" style="fill: #000000;text-anchor:middle;font-family:sans-serif;font-style:normal;font-weight:normal" x="418.884" y="310.033">
      <tspan x="418.884" y="310.033"></tspan>
    </text>
  </g>
  <g>
    <rect style="fill: #ffffff" x="360.922" y="205.656" width="56.8" height="18"/>
    <rect style="fill: none; fill-opacity:0; stroke-width: 2; stroke: #000000" x="360.922" y="205.656" width="56.8" height="18"/>
    <text font-size="11.2" style="fill: #000000;text-anchor:middle;font-family:sans-serif;font-style:normal;font-weight:700" x="389.322" y="219.656">Images</text>
    <rect style="fill: #ffffff" x="360.922" y="223.656" width="56.8" height="164"/>
    <rect style="fill: none; fill-opacity:0; stroke-width: 2; stroke: #000000" x="360.922" y="223.656" width="56.8" height="164"/>
    <ellipse style="fill: #000000" cx="365.922" cy="233.656" rx="2" ry="2"/>
    <text font-size="12.8" style="fill: #000000;text-anchor:start;font-family:monospace;font-style:normal;font-weight:normal" x="369.922" y="239.656">Bmp</text>
    <ellipse style="fill: #000000" cx="365.922" cy="249.656" rx="2" ry="2"/>
    <text font-size="12.8" style="fill: #000000;text-anchor:start;font-family:monospace;font-style:normal;font-weight:normal" x="369.922" y="255.656">Gif</text>
    <ellipse style="fill: #000000" cx="365.922" cy="265.656" rx="2" ry="2"/>
    <text font-size="12.8" style="fill: #000000;text-anchor:start;font-family:monospace;font-style:normal;font-weight:normal" x="369.922" y="271.656">Png</text>
    <ellipse style="fill: #000000" cx="365.922" cy="281.656" rx="2" ry="2"/>
    <text font-size="12.8" style="fill: #000000;text-anchor:start;font-family:monospace;font-style:normal;font-weight:normal" x="369.922" y="287.656">Jpeg</text>
    <ellipse style="fill: #000000" cx="365.922" cy="297.656" rx="2" ry="2"/>
    <text font-size="12.8" style="fill: #000000;text-anchor:start;font-family:monospace;font-style:normal;font-weight:normal" x="369.922" y="303.656">Svg</text>
    <ellipse style="fill: #000000" cx="365.922" cy="313.656" rx="2" ry="2"/>
    <text font-size="12.8" style="fill: #000000;text-anchor:start;font-family:monospace;font-style:normal;font-weight:normal" x="369.922" y="319.656">Eps</text>
    <ellipse style="fill: #000000" cx="365.922" cy="329.656" rx="2" ry="2"/>
    <text font-size="12.8" style="fill: #000000;text-anchor:start;font-family:monospace;font-style:normal;font-weight:normal" x="369.922" y="335.656">Ico</text>
    <ellipse style="fill: #000000" cx="365.922" cy="345.656" rx="2" ry="2"/>
    <text font-size="12.8" style="fill: #000000;text-anchor:start;font-family:monospace;font-style:normal;font-weight:normal" x="369.922" y="351.656">Tga</text>
    <ellipse style="fill: #000000" cx="365.922" cy="361.656" rx="2" ry="2"/>
    <text font-size="12.8" style="fill: #000000;text-anchor:start;font-family:monospace;font-style:normal;font-weight:normal" x="369.922" y="367.656">Tiff</text>
    <ellipse style="fill: #000000" cx="365.922" cy="377.656" rx="2" ry="2"/>
    <text font-size="12.8" style="fill: #000000;text-anchor:start;font-family:monospace;font-style:normal;font-weight:normal" x="369.922" y="383.656">Pnm</text>
  </g>
  <g>
    <rect style="fill: #ffffff" x="431.964" y="205.94" width="64.15" height="18"/>
    <rect style="fill: none; fill-opacity:0; stroke-width: 2; stroke: #000000" x="431.964" y="205.94" width="64.15" height="18"/>
    <text font-size="11.2" style="fill: #000000;text-anchor:middle;font-family:sans-serif;font-style:normal;font-weight:700" x="464.039" y="219.94">Archives</text>
    <rect style="fill: #ffffff" x="431.964" y="223.94" width="64.15" height="68"/>
    <rect style="fill: none; fill-opacity:0; stroke-width: 2; stroke: #000000" x="431.964" y="223.94" width="64.15" height="68"/>
    <ellipse style="fill: #000000" cx="436.964" cy="233.94" rx="2" ry="2"/>
    <text font-size="12.8" style="fill: #000000;text-anchor:start;font-family:monospace;font-style:normal;font-weight:normal" x="440.964" y="239.94">Zip</text>
    <ellipse style="fill: #000000" cx="436.964" cy="249.94" rx="2" ry="2"/>
    <text font-size="12.8" style="fill: #000000;text-anchor:start;font-family:monospace;font-style:normal;font-weight:normal" x="440.964" y="255.94">Gzip</text>
    <ellipse style="fill: #000000" cx="436.964" cy="265.94" rx="2" ry="2"/>
    <text font-size="12.8" style="fill: #000000;text-anchor:start;font-family:monospace;font-style:normal;font-weight:normal" x="440.964" y="271.94">Tar</text>
    <ellipse style="fill: #000000" cx="436.964" cy="281.94" rx="2" ry="2"/>
    <text font-size="12.8" style="fill: #000000;text-anchor:start;font-family:monospace;font-style:normal;font-weight:normal" x="440.964" y="287.94">CPIO</text>
  </g>
  <g>
    <rect style="fill: #ffffff" x="244.34" y="205.656" width="103" height="18"/>
    <rect style="fill: none; fill-opacity:0; stroke-width: 2; stroke: #000000" x="244.34" y="205.656" width="103" height="18"/>
    <text font-size="11.2" style="fill: #000000;text-anchor:middle;font-family:sans-serif;font-style:normal;font-weight:700" x="295.84" y="219.656">Codes</text>
    <rect style="fill: #ffffff" x="244.34" y="223.656" width="103" height="180"/>
    <rect style="fill: none; fill-opacity:0; stroke-width: 2; stroke: #000000" x="244.34" y="223.656" width="103" height="180"/>
    <ellipse style="fill: #000000" cx="249.34" cy="233.656" rx="2" ry="2"/>
    <text font-size="12.8" style="fill: #000000;text-anchor:start;font-family:monospace;font-style:normal;font-weight:normal" x="253.34" y="239.656">Javascript</text>
    <ellipse style="fill: #000000" cx="249.34" cy="249.656" rx="2" ry="2"/>
    <text font-size="12.8" style="fill: #000000;text-anchor:start;font-family:monospace;font-style:normal;font-weight:normal" x="253.34" y="255.656">Python</text>
    <ellipse style="fill: #000000" cx="249.34" cy="265.656" rx="2" ry="2"/>
    <text font-size="12.8" style="fill: #000000;text-anchor:start;font-family:monospace;font-style:normal;font-weight:normal" x="253.34" y="271.656">Html</text>
    <ellipse style="fill: #000000" cx="249.34" cy="281.656" rx="2" ry="2"/>
    <text font-size="12.8" style="fill: #000000;text-anchor:start;font-family:monospace;font-style:normal;font-weight:normal" x="253.34" y="287.656">Lua</text>
    <ellipse style="fill: #000000" cx="249.34" cy="297.656" rx="2" ry="2"/>
    <text font-size="12.8" style="fill: #000000;text-anchor:start;font-family:monospace;font-style:normal;font-weight:normal" x="253.34" y="303.656">Json</text>
    <ellipse style="fill: #000000" cx="249.34" cy="313.656" rx="2" ry="2"/>
    <text font-size="12.8" style="fill: #000000;text-anchor:start;font-family:monospace;font-style:normal;font-weight:normal" x="253.34" y="319.656">Xml</text>
    <ellipse style="fill: #000000" cx="249.34" cy="329.656" rx="2" ry="2"/>
    <text font-size="12.8" style="fill: #000000;text-anchor:start;font-family:monospace;font-style:normal;font-weight:normal" x="253.34" y="335.656">Css</text>
    <ellipse style="fill: #000000" cx="249.34" cy="345.656" rx="2" ry="2"/>
    <text font-size="12.8" style="fill: #000000;text-anchor:start;font-family:monospace;font-style:normal;font-weight:normal" x="253.34" y="351.656">Sh</text>
    <ellipse style="fill: #000000" cx="249.34" cy="361.656" rx="2" ry="2"/>
    <text font-size="12.8" style="fill: #000000;text-anchor:start;font-family:monospace;font-style:normal;font-weight:normal" x="253.34" y="367.656">GLSL</text>
    <ellipse style="fill: #000000" cx="249.34" cy="377.656" rx="2" ry="2"/>
    <text font-size="12.8" style="fill: #000000;text-anchor:start;font-family:monospace;font-style:normal;font-weight:normal" x="253.34" y="383.656">Dot</text>
    <ellipse style="fill: #000000" cx="249.34" cy="393.656" rx="2" ry="2"/>
    <text font-size="12.8" style="fill: #000000;text-anchor:start;font-family:monospace;font-style:normal;font-weight:normal" x="253.34" y="399.656">Regex</text>
  </g>
  <g>
    <rect style="fill: #ffffff" x="435.12" y="305.944" width="56.8" height="18"/>
    <rect style="fill: none; fill-opacity:0; stroke-width: 2; stroke: #000000" x="435.12" y="305.944" width="56.8" height="18"/>
    <text font-size="11.2" style="fill: #000000;text-anchor:middle;font-family:sans-serif;font-style:normal;font-weight:700" x="463.52" y="319.944">Media</text>
    <rect style="fill: #ffffff" x="435.12" y="323.944" width="56.8" height="84"/>
    <rect style="fill: none; fill-opacity:0; stroke-width: 2; stroke: #000000" x="435.12" y="323.944" width="56.8" height="84"/>
    <ellipse style="fill: #000000" cx="440.12" cy="333.944" rx="2" ry="2"/>
    <text font-size="12.8" style="fill: #000000;text-anchor:start;font-family:monospace;font-style:normal;font-weight:normal" x="444.12" y="339.944">Ogg</text>
    <ellipse style="fill: #000000" cx="440.12" cy="349.944" rx="2" ry="2"/>
    <text font-size="12.8" style="fill: #000000;text-anchor:start;font-family:monospace;font-style:normal;font-weight:normal" x="444.12" y="355.944">ID3</text>
    <ellipse style="fill: #000000" cx="440.12" cy="365.944" rx="2" ry="2"/>
    <text font-size="12.8" style="fill: #000000;text-anchor:start;font-family:monospace;font-style:normal;font-weight:normal" x="444.12" y="371.944">Midi</text>
    <ellipse style="fill: #000000" cx="440.12" cy="381.944" rx="2" ry="2"/>
    <text font-size="12.8" style="fill: #000000;text-anchor:start;font-family:monospace;font-style:normal;font-weight:normal" x="444.12" y="387.944">TTF</text>
    <ellipse style="fill: #000000" cx="440.12" cy="397.944" rx="2" ry="2"/>
    <text font-size="12.8" style="fill: #000000;text-anchor:start;font-family:monospace;font-style:normal;font-weight:normal" x="444.12" y="403.944">Wav</text>
  </g>
  <g>
    <rect style="fill: #ffffff" x="518.204" y="335.81" width="64.5" height="18"/>
    <rect style="fill: none; fill-opacity:0; stroke-width: 2; stroke: #000000" x="518.204" y="335.81" width="64.5" height="18"/>
    <text font-size="11.2" style="fill: #000000;text-anchor:middle;font-family:sans-serif;font-style:normal;font-weight:700" x="550.454" y="349.81">PKI</text>
    <rect style="fill: #ffffff" x="518.204" y="353.81" width="64.5" height="52"/>
    <rect style="fill: none; fill-opacity:0; stroke-width: 2; stroke: #000000" x="518.204" y="353.81" width="64.5" height="52"/>
    <ellipse style="fill: #000000" cx="523.204" cy="363.81" rx="2" ry="2"/>
    <text font-size="12.8" style="fill: #000000;text-anchor:start;font-family:monospace;font-style:normal;font-weight:normal" x="527.204" y="369.81">asn.1</text>
    <ellipse style="fill: #000000" cx="523.204" cy="379.81" rx="2" ry="2"/>
    <text font-size="12.8" style="fill: #000000;text-anchor:start;font-family:monospace;font-style:normal;font-weight:normal" x="527.204" y="385.81">x509</text>
    <ellipse style="fill: #000000" cx="523.204" cy="395.81" rx="2" ry="2"/>
    <text font-size="12.8" style="fill: #000000;text-anchor:start;font-family:monospace;font-style:normal;font-weight:normal" x="527.204" y="401.81">crt</text>
  </g>
  <g>
    <rect style="fill: #ffffff" x="510.426" y="205.788" width="80.8" height="18"/>
    <rect style="fill: none; fill-opacity:0; stroke-width: 2; stroke: #000000" x="510.426" y="205.788" width="80.8" height="18"/>
    <text font-size="11.2" style="fill: #000000;text-anchor:middle;font-family:sans-serif;font-style:normal;font-weight:700" x="550.826" y="219.788">Documents</text>
    <rect style="fill: #ffffff" x="510.426" y="223.788" width="80.8" height="100"/>
    <rect style="fill: none; fill-opacity:0; stroke-width: 2; stroke: #000000" x="510.426" y="223.788" width="80.8" height="100"/>
    <ellipse style="fill: #000000" cx="515.426" cy="233.788" rx="2" ry="2"/>
    <text font-size="12.8" style="fill: #000000;text-anchor:start;font-family:monospace;font-style:normal;font-weight:normal" x="519.426" y="239.788">Pdf</text>
    <ellipse style="fill: #000000" cx="515.426" cy="249.788" rx="2" ry="2"/>
    <text font-size="12.8" style="fill: #000000;text-anchor:start;font-family:monospace;font-style:normal;font-weight:normal" x="519.426" y="255.788">Ps</text>
    <ellipse style="fill: #000000" cx="515.426" cy="265.788" rx="2" ry="2"/>
    <text font-size="12.8" style="fill: #000000;text-anchor:start;font-family:monospace;font-style:normal;font-weight:normal" x="519.426" y="271.788">Docx</text>
    <ellipse style="fill: #000000" cx="515.426" cy="281.788" rx="2" ry="2"/>
    <text font-size="12.8" style="fill: #000000;text-anchor:start;font-family:monospace;font-style:normal;font-weight:normal" x="519.426" y="287.788">Odt</text>
    <ellipse style="fill: #000000" cx="515.426" cy="297.788" rx="2" ry="2"/>
    <text font-size="12.8" style="fill: #000000;text-anchor:start;font-family:monospace;font-style:normal;font-weight:normal" x="519.426" y="303.788">Rtf</text>
    <ellipse style="fill: #000000" cx="515.426" cy="313.788" rx="2" ry="2"/>
    <text font-size="12.8" style="fill: #000000;text-anchor:start;font-family:monospace;font-style:normal;font-weight:normal" x="519.426" y="319.788">ICal</text>
  </g>
</svg>
